<svg width="65" height="50" viewBox="0 0 65 50" fill="none" xmlns="http://www.w3.org/2000/svg">
    <path d="M0 25C0 38.8071 10.99 50 24.5468 50C3.75814 38.3 2.06403 14.95 24.5468 0C10.99 0 0 11.1929 0 25Z" fill="#648381"/>
    <path d="M65 5.76273C36.0158 17.2941 54.9292 21.9465 26.0196 49.9C40.2598 22.9076 30.4244 16.7135 51.5974 0C55.1068 3.809 57.4364 4.77995 65 5.76273Z" fill="#648381"/>
    <path d="M64.9249 37.2803C61.0286 41.6041 51.2879 31.3984 26.0196 0C38.0687 28.7503 46.4998 43.6747 58.2033 49.9C63.4548 46.15 65.4251 44.15 64.9249 37.2803Z" fill="#FFBF46"/>
</svg>
