<svg width="300" height="210" viewBox="0 0 300 210" fill="none" xmlns="http://www.w3.org/2000/svg">
<path d="M12.8977 22.5125V18.5611L4.91134 15.8929L3.92033 15.543L4.91134 15.1784L12.8977 12.4664V8.52967L0 13.8808V17.1614L12.8977 22.5125Z" fill="#FFBF46"/>
<path d="M28.2293 19.0423C28.2293 19.402 28.1661 19.7373 28.0398 20.0484C27.9232 20.3594 27.7484 20.6267 27.5152 20.8503C27.2529 21.103 26.9177 21.3023 26.5096 21.4481C26.1015 21.5842 25.6206 21.6522 25.0668 21.6522C24.6296 21.6522 24.2021 21.5939 23.7843 21.4773C23.3665 21.3606 22.9973 21.1614 22.6767 20.8795C22.3464 20.6073 22.0792 20.2379 21.8752 19.7713C21.6711 19.295 21.5691 18.707 21.5691 18.0071H17.503C17.503 19.1735 17.6828 20.1747 18.0423 21.0107C18.4017 21.8369 18.8827 22.5222 19.4851 23.0666C20.0777 23.6109 20.7627 24.0289 21.54 24.3205C22.3172 24.6024 23.1188 24.7822 23.9446 24.86V27.7178H26.2618V24.86C27.1751 24.7725 28.001 24.5829 28.7394 24.2913C29.4778 23.99 30.1093 23.5915 30.634 23.0957C31.1586 22.6 31.5618 22.0119 31.8436 21.3315C32.1253 20.6413 32.2662 19.8685 32.2662 19.0131C32.2662 18.08 32.1108 17.2732 31.7999 16.5928C31.4987 15.9026 31.0663 15.2951 30.5028 14.7702C29.9296 14.255 29.2446 13.803 28.4479 13.4142C27.6512 13.0156 26.7622 12.6317 25.7809 12.2623C25.1299 12.029 24.5859 11.8006 24.1487 11.577C23.7114 11.3437 23.3617 11.1007 23.0993 10.848C22.8273 10.5953 22.633 10.3231 22.5164 10.0315C22.4095 9.73014 22.3561 9.38993 22.3561 9.01083C22.3561 8.63173 22.4095 8.2818 22.5164 7.96103C22.633 7.64025 22.8079 7.35836 23.041 7.11535C23.2742 6.88206 23.5706 6.70223 23.93 6.57587C24.2992 6.43978 24.7316 6.37174 25.2271 6.37174C25.6546 6.37174 26.0432 6.43978 26.393 6.57587C26.7525 6.71195 27.0585 6.91122 27.3111 7.17367C27.5929 7.475 27.8115 7.85896 27.967 8.32554C28.1224 8.79212 28.2001 9.33647 28.2001 9.95857H32.2516C32.2516 8.98653 32.1156 8.11169 31.8436 7.33406C31.5812 6.5467 31.2072 5.86141 30.7214 5.27819C30.2259 4.70468 29.6284 4.2381 28.9288 3.87845C28.2293 3.51879 27.4423 3.28064 26.5679 3.164V0H24.2361V3.13484C23.3422 3.22232 22.531 3.42159 21.8023 3.73264C21.0736 4.0437 20.4518 4.45195 19.9368 4.95742C19.4219 5.46288 19.0236 6.06068 18.7418 6.75083C18.46 7.43126 18.3192 8.1846 18.3192 9.01083C18.3192 9.95371 18.4746 10.7702 18.7855 11.4604C19.0964 12.1408 19.5385 12.7386 20.1117 13.2538C20.6752 13.769 21.3602 14.221 22.1666 14.6098C22.973 14.9986 23.8669 15.368 24.8482 15.7179C25.4603 15.9318 25.9801 16.1505 26.4076 16.3741C26.8448 16.5879 27.1994 16.8261 27.4715 17.0885C27.7338 17.351 27.9232 17.6426 28.0398 17.9633C28.1661 18.2744 28.2293 18.6341 28.2293 19.0423Z" fill="#FFBF46"/>
<path d="M35.9242 22.5271L49.0406 17.176V13.8662L35.9242 8.52967V12.4519L44.2895 15.2076L45.164 15.4992L44.275 15.7908L35.9242 18.5903V22.5271Z" fill="#FFBF46"/>
<path d="M63.8475 20.1796L65.0862 24.6121H69.4L62.5795 3.38271H58.8632L51.9116 24.6121H56.2254L57.4787 20.1796H63.8475ZM58.4843 16.6948L60.7141 8.87961L62.8856 16.6948H58.4843Z" fill="#648381"/>
<path d="M72.3294 2.21626V5.52606H77.0512V21.3169H72.3294V24.6121H85.6643V21.3169H81.1465V2.21626H72.3294Z" fill="#648381"/>
<path d="M89.4681 30.6777H93.5196V23.2415C93.7042 23.4457 93.8985 23.6303 94.1025 23.7956C94.3065 23.9608 94.5203 24.1115 94.7437 24.2476C95.1227 24.4614 95.5307 24.6218 95.9679 24.7288C96.4149 24.8454 96.9007 24.9037 97.4253 24.9037C98.4163 24.9037 99.2956 24.6996 100.063 24.2913C100.831 23.8831 101.477 23.3193 102.001 22.6C102.516 21.8904 102.905 21.0447 103.167 20.063C103.439 19.0812 103.575 18.0168 103.575 16.8698V16.5636C103.575 15.368 103.439 14.2793 103.167 13.2975C102.905 12.3061 102.512 11.4555 101.987 10.7459C101.462 10.0461 100.816 9.50657 100.049 9.12748C99.281 8.73866 98.3969 8.54425 97.3962 8.54425C96.9104 8.54425 96.4537 8.59771 96.0262 8.70464C95.6085 8.80184 95.2247 8.94279 94.8749 9.12748C94.5834 9.283 94.3114 9.46769 94.0588 9.68154C93.8062 9.88567 93.573 10.119 93.3592 10.3814L93.2135 8.83586H89.4681V30.6777ZM99.5239 16.5636V16.8698C99.5239 17.5211 99.4656 18.1383 99.349 18.7215C99.2325 19.295 99.0479 19.8005 98.7952 20.2379C98.5426 20.6753 98.2123 21.0204 97.8042 21.2731C97.4059 21.5259 96.9201 21.6522 96.3469 21.6522C95.9874 21.6522 95.6619 21.6182 95.3704 21.5502C95.0789 21.4724 94.8215 21.3655 94.598 21.2294C94.3648 21.0836 94.1559 20.9086 93.9713 20.7045C93.7965 20.5004 93.6459 20.2719 93.5196 20.0192V13.4288C93.6556 13.1566 93.8159 12.9184 94.0005 12.7143C94.1948 12.5102 94.4183 12.3401 94.6709 12.204C94.8943 12.0873 95.1421 11.9999 95.4141 11.9415C95.6862 11.8735 95.9874 11.8395 96.3177 11.8395C96.8909 11.8395 97.3767 11.961 97.7751 12.204C98.1831 12.447 98.5183 12.7775 98.7807 13.1955C99.0333 13.6232 99.2179 14.1286 99.3345 14.7119C99.4608 15.2854 99.5239 15.9026 99.5239 16.5636Z" fill="#648381"/>
<path d="M111.387 11.0084V2.21626H107.335V24.6121H111.387V13.2246C111.542 13.0205 111.712 12.8358 111.897 12.6706C112.091 12.5053 112.305 12.3644 112.538 12.2477C112.791 12.1116 113.073 12.0096 113.384 11.9415C113.694 11.8735 114.03 11.8395 114.389 11.8395C114.855 11.8395 115.273 11.9027 115.642 12.029C116.012 12.1457 116.327 12.3304 116.59 12.5831C116.852 12.8358 117.051 13.1663 117.187 13.5746C117.333 13.9828 117.406 14.4688 117.406 15.0326V24.6121H121.457V15.0618C121.457 13.9051 121.316 12.9184 121.035 12.1019C120.763 11.2757 120.379 10.6001 119.883 10.0752C119.388 9.55031 118.795 9.16636 118.105 8.92335C117.416 8.67062 116.658 8.54425 115.832 8.54425C115.268 8.54425 114.734 8.62687 114.229 8.79212C113.724 8.95737 113.262 9.19066 112.844 9.49199C112.572 9.6864 112.31 9.91483 112.057 10.1773C111.814 10.43 111.591 10.707 111.387 11.0084Z" fill="#648381"/>
<path d="M135.113 24.6121H139.223V24.3642C139.019 23.9657 138.863 23.4894 138.756 22.9353C138.65 22.3813 138.596 21.6814 138.596 20.8357V14.0703C138.596 13.1566 138.426 12.3547 138.086 11.6645C137.746 10.9646 137.275 10.3863 136.672 9.92941C136.07 9.47255 135.356 9.12748 134.53 8.89419C133.714 8.6609 132.83 8.54425 131.878 8.54425C130.819 8.54425 129.876 8.68034 129.05 8.95251C128.234 9.21496 127.544 9.57462 126.981 10.0315C126.408 10.4883 125.97 11.0181 125.669 11.6208C125.378 12.2234 125.232 12.8601 125.232 13.5308H129.283C129.283 13.2489 129.322 12.9913 129.4 12.7581C129.487 12.5248 129.619 12.3255 129.794 12.1602C129.988 11.9756 130.24 11.8346 130.551 11.7374C130.862 11.6305 131.231 11.577 131.659 11.577C132.145 11.577 132.567 11.6402 132.927 11.7666C133.296 11.8832 133.602 12.0533 133.845 12.2769C134.078 12.4907 134.253 12.7483 134.37 13.0497C134.486 13.3413 134.545 13.6718 134.545 14.0412V14.9743H132.286C131.12 14.9743 130.085 15.0812 129.181 15.2951C128.288 15.4992 127.535 15.8005 126.923 16.1991C126.242 16.6365 125.732 17.1954 125.392 17.8759C125.052 18.5466 124.882 19.3193 124.882 20.1942C124.882 20.8746 125.018 21.5064 125.29 22.0897C125.562 22.6632 125.941 23.1589 126.427 23.5769C126.913 23.9949 127.491 24.3205 128.161 24.5538C128.841 24.7871 129.585 24.9037 130.391 24.9037C130.887 24.9037 131.348 24.8551 131.776 24.7579C132.203 24.6704 132.597 24.5441 132.956 24.3788C133.306 24.2233 133.626 24.0386 133.918 23.8248C134.209 23.6109 134.467 23.3825 134.69 23.1395C134.739 23.4214 134.797 23.6887 134.865 23.9414C134.933 24.1941 135.016 24.4177 135.113 24.6121ZM131.251 21.7689C130.872 21.7689 130.537 21.7251 130.245 21.6377C129.964 21.5405 129.726 21.4141 129.531 21.2586C129.337 21.0933 129.186 20.894 129.079 20.6608C128.982 20.4177 128.934 20.1553 128.934 19.8734C128.934 19.5137 129.002 19.1833 129.138 18.8819C129.274 18.5709 129.483 18.3036 129.764 18.08C130.046 17.8661 130.41 17.7009 130.857 17.5842C131.304 17.4579 131.844 17.3947 132.475 17.3947H134.545V20.1067C134.428 20.3108 134.268 20.515 134.064 20.7191C133.86 20.9135 133.617 21.0885 133.335 21.244C133.053 21.3995 132.737 21.5259 132.388 21.6231C132.038 21.7203 131.659 21.7689 131.251 21.7689Z" fill="#648381"/>
<path d="M160.938 24.6121H168.676C169.842 24.6121 170.891 24.4809 171.824 24.2184C172.757 23.956 173.549 23.5623 174.2 23.0374C174.851 22.5125 175.351 21.8612 175.701 21.0836C176.051 20.306 176.225 19.4068 176.225 18.3862C176.225 17.8516 176.153 17.3364 176.007 16.8406C175.871 16.3352 175.657 15.8686 175.366 15.4409C175.084 15.0424 174.734 14.6924 174.316 14.3911C173.908 14.0898 173.354 13.8419 172.655 13.6475V13.6329C173.014 13.4968 173.34 13.3316 173.631 13.1372C173.932 12.9427 174.2 12.7289 174.433 12.4956C174.86 12.0679 175.181 11.5722 175.395 11.0084C175.618 10.4349 175.735 9.82735 175.744 9.1858C175.744 8.19432 175.56 7.33406 175.191 6.60503C174.831 5.876 174.316 5.27333 173.646 4.79703C172.975 4.32073 172.164 3.96593 171.212 3.73264C170.27 3.49935 169.22 3.38271 168.064 3.38271H160.938V24.6121ZM165.047 15.2513H168.866C169.439 15.2611 169.934 15.3388 170.352 15.4846C170.77 15.6304 171.11 15.8394 171.372 16.1116C171.635 16.3741 171.824 16.6948 171.941 17.0739C172.067 17.453 172.13 17.8807 172.13 18.357C172.13 18.8139 172.048 19.227 171.882 19.5964C171.727 19.9657 171.494 20.2817 171.183 20.5441C170.901 20.7774 170.547 20.9621 170.119 21.0982C169.701 21.2343 169.225 21.3023 168.691 21.3023H165.047V15.2513ZM165.047 12.2915V6.72167H168.079C168.739 6.73139 169.313 6.8043 169.798 6.94038C170.294 7.07647 170.687 7.29518 170.979 7.59651C171.202 7.81036 171.367 8.07767 171.474 8.39845C171.591 8.71922 171.649 9.09346 171.649 9.52115C171.649 9.92941 171.581 10.2939 171.445 10.6147C171.319 10.9355 171.134 11.2076 170.891 11.4312C170.6 11.7131 170.216 11.927 169.74 12.0728C169.264 12.2089 168.715 12.2818 168.093 12.2915H165.047Z" fill="#648381"/>
<path d="M188.89 24.6121H193V24.3642C192.796 23.9657 192.64 23.4894 192.533 22.9353C192.427 22.3813 192.373 21.6814 192.373 20.8357V14.0703C192.373 13.1566 192.203 12.3547 191.863 11.6645C191.523 10.9646 191.052 10.3863 190.449 9.92941C189.847 9.47255 189.133 9.12748 188.307 8.89419C187.491 8.6609 186.607 8.54425 185.655 8.54425C184.596 8.54425 183.653 8.68034 182.827 8.95251C182.011 9.21496 181.321 9.57462 180.758 10.0315C180.185 10.4883 179.747 11.0181 179.446 11.6208C179.155 12.2234 179.009 12.8601 179.009 13.5308H183.06C183.06 13.2489 183.099 12.9913 183.177 12.7581C183.265 12.5248 183.396 12.3255 183.571 12.1602C183.765 11.9756 184.017 11.8346 184.328 11.7374C184.639 11.6305 185.008 11.577 185.436 11.577C185.922 11.577 186.344 11.6402 186.704 11.7666C187.073 11.8832 187.379 12.0533 187.622 12.2769C187.855 12.4907 188.03 12.7483 188.147 13.0497C188.263 13.3413 188.322 13.6718 188.322 14.0412V14.9743H186.063C184.897 14.9743 183.862 15.0812 182.958 15.2951C182.065 15.4992 181.312 15.8005 180.7 16.1991C180.019 16.6365 179.509 17.1954 179.169 17.8759C178.829 18.5466 178.659 19.3193 178.659 20.1942C178.659 20.8746 178.795 21.5064 179.067 22.0897C179.339 22.6632 179.718 23.1589 180.204 23.5769C180.69 23.9949 181.268 24.3205 181.938 24.5538C182.618 24.7871 183.362 24.9037 184.168 24.9037C184.664 24.9037 185.125 24.8551 185.553 24.7579C185.98 24.6704 186.374 24.5441 186.733 24.3788C187.083 24.2233 187.403 24.0386 187.695 23.8248C187.986 23.6109 188.244 23.3825 188.467 23.1395C188.516 23.4214 188.574 23.6887 188.642 23.9414C188.71 24.1941 188.793 24.4177 188.89 24.6121ZM185.028 21.7689C184.649 21.7689 184.314 21.7251 184.022 21.6377C183.741 21.5405 183.503 21.4141 183.308 21.2586C183.114 21.0933 182.963 20.894 182.856 20.6608C182.759 20.4177 182.711 20.1553 182.711 19.8734C182.711 19.5137 182.779 19.1833 182.915 18.8819C183.051 18.5709 183.26 18.3036 183.541 18.08C183.823 17.8661 184.188 17.7009 184.634 17.5842C185.081 17.4579 185.621 17.3947 186.252 17.3947H188.322V20.1067C188.205 20.3108 188.045 20.515 187.841 20.7191C187.637 20.9135 187.394 21.0885 187.112 21.244C186.83 21.3995 186.514 21.5259 186.165 21.6231C185.815 21.7203 185.436 21.7689 185.028 21.7689Z" fill="#648381"/>
<path d="M196.964 24.6121H201.03V13.3996C201.166 13.1858 201.316 12.9913 201.482 12.8164C201.647 12.6414 201.831 12.4907 202.035 12.3644C202.288 12.1894 202.575 12.0582 202.895 11.9707C203.226 11.8832 203.585 11.8395 203.974 11.8395C204.44 11.8395 204.858 11.8881 205.227 11.9853C205.596 12.0728 205.912 12.2332 206.174 12.4664C206.437 12.6997 206.636 13.0205 206.772 13.4288C206.918 13.8273 206.991 14.3376 206.991 14.9597V24.6121H211.042V14.9014C211.042 13.7544 210.906 12.7824 210.634 11.9853C210.372 11.1785 210.002 10.5175 209.526 10.0023C209.041 9.49685 208.467 9.12748 207.807 8.89419C207.146 8.6609 206.417 8.54425 205.621 8.54425C204.999 8.54425 204.411 8.63173 203.857 8.8067C203.303 8.98167 202.793 9.2344 202.327 9.5649C202.055 9.7593 201.797 9.97801 201.555 10.221C201.312 10.464 201.088 10.7313 200.884 11.023L200.636 8.83586H196.964V24.6121Z" fill="#648381"/>
<path d="M220.821 18.0946L225.295 24.6121H230.265L223.488 15.4117L229.434 8.83586H224.566L220.209 13.6183L218.985 15.0181V2.21626H214.933V24.6121H218.985V19.8005L220.821 18.0946Z" fill="#648381"/>
<path d="M245.932 22.5125V18.5611L237.945 15.8929L236.954 15.543L237.945 15.1784L245.932 12.4664V8.52967L233.034 13.8808V17.1614L245.932 22.5125Z" fill="#FFBF46"/>
<path d="M255.667 26.4347L263.609 3.38271H259.835L251.892 26.4347H255.667Z" fill="#FFBF46"/>
<path d="M279.189 19.0423C279.189 19.402 279.126 19.7373 278.999 20.0484C278.883 20.3594 278.708 20.6267 278.475 20.8503C278.212 21.103 277.877 21.3023 277.469 21.4481C277.061 21.5842 276.58 21.6522 276.026 21.6522C275.589 21.6522 275.162 21.5939 274.744 21.4773C274.326 21.3606 273.957 21.1614 273.636 20.8795C273.306 20.6073 273.039 20.2379 272.835 19.7713C272.631 19.295 272.529 18.707 272.529 18.0071H268.462C268.462 19.1735 268.642 20.1747 269.002 21.0107C269.361 21.8369 269.842 22.5222 270.444 23.0666C271.037 23.6109 271.722 24.0289 272.499 24.3205C273.277 24.6024 274.078 24.7822 274.904 24.86V27.7178H277.221V24.86C278.135 24.7725 278.96 24.5829 279.699 24.2913C280.437 23.99 281.069 23.5915 281.593 23.0957C282.118 22.6 282.521 22.0119 282.803 21.3315C283.085 20.6413 283.226 19.8685 283.226 19.0131C283.226 18.08 283.07 17.2732 282.759 16.5928C282.458 15.9026 282.026 15.2951 281.462 14.7702C280.889 14.255 280.204 13.803 279.407 13.4142C278.611 13.0156 277.722 12.6317 276.74 12.2623C276.089 12.029 275.545 11.8006 275.108 11.577C274.671 11.3437 274.321 11.1007 274.059 10.848C273.787 10.5953 273.592 10.3231 273.476 10.0315C273.369 9.73014 273.316 9.38993 273.316 9.01083C273.316 8.63173 273.369 8.2818 273.476 7.96103C273.592 7.64025 273.767 7.35836 274 7.11535C274.234 6.88206 274.53 6.70223 274.889 6.57587C275.259 6.43978 275.691 6.37174 276.187 6.37174C276.614 6.37174 277.003 6.43978 277.352 6.57587C277.712 6.71195 278.018 6.91122 278.271 7.17367C278.552 7.475 278.771 7.85896 278.926 8.32554C279.082 8.79212 279.16 9.33647 279.16 9.95857H283.211C283.211 8.98653 283.075 8.11169 282.803 7.33406C282.541 6.5467 282.167 5.86141 281.681 5.27819C281.185 4.70468 280.588 4.2381 279.888 3.87845C279.189 3.51879 278.402 3.28064 277.527 3.164V0H275.196V3.13484C274.302 3.22232 273.49 3.42159 272.762 3.73264C272.033 4.0437 271.411 4.45195 270.896 4.95742C270.381 5.46288 269.983 6.06068 269.701 6.75083C269.419 7.43126 269.279 8.1846 269.279 9.01083C269.279 9.95371 269.434 10.7702 269.745 11.4604C270.056 12.1408 270.498 12.7386 271.071 13.2538C271.635 13.769 272.32 14.221 273.126 14.6098C273.932 14.9986 274.826 15.368 275.808 15.7179C276.42 15.9318 276.94 16.1505 277.367 16.3741C277.804 16.5879 278.159 16.8261 278.431 17.0885C278.693 17.351 278.883 17.6426 278.999 17.9633C279.126 18.2744 279.189 18.6341 279.189 19.0423Z" fill="#FFBF46"/>
<path d="M286.884 22.5271L300 17.176V13.8662L286.884 8.52967V12.4519L295.249 15.2076L296.123 15.4992L295.234 15.7908L286.884 18.5903V22.5271Z" fill="#FFBF46"/>
<path d="M49.3369 132.237C49.3369 175.184 83.5054 210 125.654 210C61.0212 173.607 55.7541 100.976 125.654 54.4732C83.5054 54.4732 49.3369 89.2891 49.3369 132.237Z" fill="#648381"/>
<path d="M251.426 72.3984C161.312 108.267 220.115 122.739 130.234 209.689C174.507 125.728 143.928 106.461 209.756 54.4732C220.667 66.3213 227.91 69.3415 251.426 72.3984Z" fill="#648381"/>
<path d="M251.192 170.435C239.078 183.884 208.794 152.139 130.234 54.4732C167.695 143.902 193.908 190.325 230.294 209.689C246.622 198.024 252.747 191.803 251.192 170.435Z" fill="#FFBF46"/>
</svg>
